<?xml version="1.0" encoding="UTF-8" standalone="no"?>
<svg width="55px" height="30px" viewBox="0 0 55 30" version="1.1" xmlns="http://www.w3.org/2000/svg" xmlns:xlink="http://www.w3.org/1999/xlink" xmlns:sketch="http://www.bohemiancoding.com/sketch/ns">
    <!-- Generator: Sketch 3.5.1 (25234) - http://www.bohemiancoding.com/sketch -->
    <title>logo</title>
    <desc>Created with Sketch.</desc>
    <defs></defs>
    <g id="SERVICIOS" stroke="none" stroke-width="1" fill="none" fill-rule="evenodd" sketch:type="MSPage">
        <g id="Servicios---desktop" sketch:type="MSArtboardGroup" transform="translate(-137.000000, -5242.000000)">
            <g id="footer" sketch:type="MSLayerGroup" transform="translate(0.000000, 5047.175000)">
                <g id="logo" transform="translate(137.000000, 195.000000)" sketch:type="MSShapeGroup">
                    <path d="M25.8079151,28.165812 L6.83962264,10.2013675 L6.83962264,22.1206838 C6.83962264,23.6947009 5.32521698,24.9699145 3.74056604,24.9699145 C2.15522642,24.9699145 0.641509434,23.6947009 0.641509434,22.1206838 L0.641509434,3.61880342 C0.641509434,2.48239316 1.24479245,1.45538462 2.29433962,1.00410256 C3.34457547,0.552820513 4.52566038,0.764102564 5.35896226,1.54153846 L26.7500283,21.4950427 C28.0481887,19.2769231 29.9716698,16.2116239 32.3538113,13.1251282 C38.6745094,4.93162393 44.8905283,0.777094017 50.8365849,0.777094017 C52.4212358,0.777094017 53.7042453,2.05299145 53.7042453,3.62564103 C53.7042453,5.20034188 52.4184811,6.47623932 50.8338302,6.47623932 C46.8401792,6.47623932 42.0387075,9.95111111 36.9521226,16.5241026 C32.8214245,21.8615385 30.0605094,27.3076923 30.0329623,27.3623932 C29.6273302,28.1671795 28.8615189,28.7353846 27.9696792,28.8933333 C27.8016415,28.922735 27.6329151,28.937094 27.4648774,28.937094 C26.7410755,28.937094 26.3450849,28.6663248 25.8079151,28.165812 Z" id="Fill-2" fill="#353940"></path>
                    <path d="M51.259434,24.9699145 C49.674783,24.9699145 48.1603774,23.6947009 48.1603774,22.1206838 L48.1603774,10.4953846 C48.1603774,8.92136752 49.674783,7.64615385 51.259434,7.64615385 C52.8447736,7.64615385 54.3584906,8.92136752 54.3584906,10.4953846 L54.3584906,22.1206838 C54.3584906,23.6947009 52.8447736,24.9699145 51.259434,24.9699145" id="Fill-3" fill="#A9C52F"></path>
                </g>
            </g>
        </g>
    </g>
</svg>